# xmcd
#
# Track frame offsets: 
#        150
#        26890
#        64820
#        97390
#        148107
#        182599
#        213297
#        242251
#        265911
#
# Disc length: 3727 seconds
#
# Revision: 1
# Processed by: cddbd v1.5.2PL0 Copyright (c) Steve Scherf et al.
# Submitted via: ExactAudioCopyFreeDBPlugin 1.0
#
DISCID=840e8d09
DTITLE=Various Artist - Summer Blues (HQ)
DYEAR=1900
DGENRE=Blues
TTITLE0=Bill Withers - Ain't No Sunshine
TTITLE1=James Rogers - That's All Right
TTITLE2=John Heartsman - Flute juice
TTITLE3=Clarles Calhoun/Lou Willie - Flip, Flop and Fly
TTITLE4=John Heartsman - Let Me Love You
TTITLE5=Junior Parker - I Don't Want No Woman
TTITLE6=W.Williams - Meet Me In My Hometown
TTITLE7=L. Allison - Don't Burn My Bread
TTITLE8=L. Allson - One More
EXTD=
EXTT0=
EXTT1=
EXTT2=
EXTT3=
EXTT4=
EXTT5=
EXTT6=
EXTT7=
EXTT8=
PLAYORDER=
